<svg width="48" height="47" viewBox="0 0 48 47" fill="none" xmlns="http://www.w3.org/2000/svg">
<g id="arcticons:amazon-music">
<path id="Vector" d="M23.7167 44.9714C35.4529 44.9714 44.967 35.4573 44.967 23.7211C44.967 11.9848 35.4529 2.4707 23.7167 2.4707C11.9804 2.4707 2.46631 11.9848 2.46631 23.7211C2.46631 35.4573 11.9804 44.9714 23.7167 44.9714Z" stroke="#6D6E73" stroke-width="1.69438" stroke-linecap="round" stroke-linejoin="round"/>
<path id="Vector_2" d="M31.9006 29.3549C33.0007 28.9101 34.9567 28.3191 35.5458 29.0327C36.1823 29.8046 35.3778 31.4809 34.6365 32.7826" stroke="#6D6E73" stroke-width="1.69438" stroke-linecap="round" stroke-linejoin="round"/>
<path id="Vector_3" d="M11.6564 29.8723C13.395 31.2531 18.5297 33.3663 23.9994 33.3663C27.5882 33.4509 31.1098 32.384 34.0484 30.3221M20.1625 19.8916V23.1533C20.1625 23.6776 20.3708 24.1804 20.7415 24.5511C21.1122 24.9218 21.615 25.1301 22.1393 25.1301C22.6635 25.1301 23.1663 24.9218 23.5371 24.5511C23.9078 24.1804 24.116 23.6776 24.116 23.1533M24.116 23.1533V19.8916M24.116 23.1533V25.1301M10.2747 21.9672C10.2747 21.4429 10.4829 20.9401 10.8536 20.5694C11.2244 20.1987 11.7272 19.9904 12.2514 19.9904C12.7757 19.9904 13.2785 20.1987 13.6492 20.5694C14.0199 20.9401 14.2282 21.4429 14.2282 21.9672M14.2282 21.9672V25.1301M14.2282 21.9672C14.2282 21.4429 14.4365 20.9401 14.8072 20.5694C15.1779 20.1987 15.6807 19.9904 16.205 19.9904C16.7293 19.9904 17.2321 20.1987 17.6028 20.5694C17.9735 20.9401 18.1818 21.4429 18.1818 21.9672V25.1301M10.2747 19.9904V25.1301" stroke="#6D6E73" stroke-width="1.69438" stroke-linecap="round" stroke-linejoin="round"/>
<path id="Vector_4" d="M31.5051 18.1621C31.8872 18.1621 32.197 17.8523 32.197 17.4702C32.197 17.0881 31.8872 16.7783 31.5051 16.7783C31.123 16.7783 30.8132 17.0881 30.8132 17.4702C30.8132 17.8523 31.123 18.1621 31.5051 18.1621Z" fill="#6D6E73"/>
<path id="Vector_5" d="M31.5051 19.8917V25.1301M26.2271 24.6834C26.6903 25.0386 27.2747 25.1972 27.854 25.1252H28.2968C28.6436 25.1247 28.9761 24.9864 29.2212 24.7409C29.4662 24.4953 29.6037 24.1625 29.6034 23.8156C29.6037 23.4687 29.4662 23.1359 29.2212 22.8903C28.9761 22.6447 28.6436 22.5065 28.2968 22.506H27.4102C27.2384 22.5058 27.0683 22.4718 26.9096 22.406C26.7509 22.3401 26.6068 22.2435 26.4855 22.1219C26.3641 22.0003 26.2679 21.856 26.2024 21.6971C26.1369 21.5383 26.1033 21.3682 26.1035 21.1963C26.1033 21.0245 26.1369 20.8544 26.2024 20.6956C26.2679 20.5367 26.3641 20.3924 26.4855 20.2708C26.6068 20.1492 26.7509 20.0526 26.9096 19.9867C27.0683 19.9208 27.2384 19.8869 27.4102 19.8867H27.854C28.4327 19.8156 29.0162 19.9746 29.4789 20.3295M37.1586 24.1348C36.9856 24.4373 36.7357 24.6887 36.4342 24.8635C36.1327 25.0383 35.7903 25.1303 35.4418 25.1301C34.9175 25.1301 34.4147 24.9219 34.044 24.5512C33.6733 24.1804 33.465 23.6776 33.465 23.1534V21.8685C33.465 21.3442 33.6733 20.8414 34.044 20.4707C34.4147 20.0999 34.9175 19.8917 35.4418 19.8917C35.7897 19.8915 36.1315 19.9831 36.4326 20.1574C36.7337 20.3316 36.9835 20.5823 37.1567 20.884" stroke="#6D6E73" stroke-width="1.69438" stroke-linecap="round" stroke-linejoin="round"/>
</g>
</svg>
