<svg width="15" height="15" viewBox="0 0 15 15" fill="none" xmlns="http://www.w3.org/2000/svg">
<g id="Link &#226;&#134;&#146; SVG" clip-path="url(#clip0_60_624)">
<path id="Vector" d="M3.88092 2.07229C3.88092 2.86279 3.29845 3.48685 2.34154 3.48685C1.42622 3.48685 0.84375 2.86279 0.84375 2.07229C0.84375 1.2818 1.42622 0.657715 2.34154 0.657715C3.29845 0.657715 3.83932 1.2818 3.88092 2.07229ZM0.926959 13.8049V4.65179H3.75611V13.8049H0.926959ZM5.50352 7.56415C5.50352 6.44081 5.46192 5.48389 5.42031 4.65179H7.87502L7.99983 5.94157H8.04144C8.41588 5.3591 9.33119 4.44376 10.8706 4.44376C12.7428 4.44376 14.1574 5.69193 14.1574 8.39626V13.8049H11.3282V8.72911C11.3282 7.56417 10.9122 6.73205 9.87206 6.73205C9.08156 6.73205 8.62391 7.27293 8.41588 7.81379C8.33267 7.98021 8.33267 8.27145 8.33267 8.52109V13.8049H5.50352V7.56415Z" fill="#FFBD45"/>
</g>
<defs>
<clipPath id="clip0_60_624">
<rect width="14" height="14" fill="white" transform="translate(0.5 0.231445)"/>
</clipPath>
</defs>
</svg>
