<svg width="17" height="15" viewBox="0 0 17 15" fill="none" xmlns="http://www.w3.org/2000/svg">
<g id="Link &#226;&#134;&#146; SVG" clip-path="url(#clip0_60_620)">
<path id="Vector" d="M16.2575 2.37827C15.6775 2.62215 15.0975 2.81725 14.4208 2.86602C15.0975 2.47581 15.5808 1.84172 15.8225 1.11009C15.1941 1.50029 14.5175 1.74418 13.7925 1.8905C13.2124 1.25642 12.3908 0.866211 11.4724 0.866211C9.73237 0.866211 8.28234 2.28071 8.28234 4.08542C8.28234 4.3293 8.33067 4.57318 8.37901 4.81706C5.72062 4.67073 3.40057 3.40255 1.85387 1.45152C1.56387 1.93928 1.41887 2.47581 1.41887 3.06112C1.41887 4.18297 1.99888 5.15849 2.82056 5.7438C2.28888 5.7438 1.80554 5.59747 1.37053 5.35359V5.40237C1.37053 6.9632 2.48222 8.23137 3.93225 8.52402C3.64224 8.5728 3.40057 8.62157 3.11057 8.62157C2.91723 8.62157 2.7239 8.62158 2.53056 8.5728C2.91723 9.84099 4.12559 10.7677 5.47895 10.8164C4.41559 11.6944 3.0139 12.1822 1.51553 12.1822C1.27386 12.1822 0.983859 12.1822 0.742188 12.1334C2.14389 13.0601 3.83558 13.5967 5.62395 13.5967C11.4724 13.5967 14.6625 8.71913 14.6625 4.47563C14.6625 4.3293 14.6625 4.18297 14.6625 4.08542C15.2908 3.54888 15.8708 3.01236 16.2575 2.37827Z" fill="#FFBD45"/>
</g>
<defs>
<clipPath id="clip0_60_620">
<rect width="16" height="14" fill="white" transform="translate(0.5 0.231445)"/>
</clipPath>
</defs>
</svg>
