<svg width="17" height="17" viewBox="0 0 17 17" fill="none" xmlns="http://www.w3.org/2000/svg">
<g id="Link &#226;&#134;&#146; SVG" clip-path="url(#clip0_60_628)">
<path id="Vector" d="M15.9549 5.13923C15.9184 4.34092 15.7917 3.79574 15.6062 3.31866C15.4146 2.82548 15.1581 2.40721 14.7412 1.99027C14.3242 1.57331 13.906 1.31686 13.4128 1.12519C12.9357 0.939777 12.3905 0.813015 11.5922 0.776566C10.7923 0.740065 10.5369 0.731445 8.5 0.731445C6.46311 0.731445 6.20771 0.740065 5.40778 0.776566C4.60947 0.813015 4.06429 0.939777 3.58721 1.12519C3.09405 1.31686 2.67576 1.57329 2.25882 1.99027C1.84186 2.40721 1.58541 2.82548 1.39375 3.31866C1.20833 3.79572 1.08157 4.34092 1.04512 5.13923C1.00862 5.93916 1 6.19456 1 8.23145C1 10.2683 1.00862 10.5237 1.04512 11.3236C1.08157 12.1219 1.20833 12.6671 1.39375 13.1442C1.58541 13.6373 1.84184 14.0556 2.25882 14.4726C2.67576 14.8895 3.09405 15.146 3.58721 15.3376C4.06429 15.5231 4.60947 15.6498 5.40778 15.6863C6.20772 15.7228 6.46313 15.7314 8.5 15.7314C10.5369 15.7314 10.7923 15.7228 11.5922 15.6863C12.3905 15.6498 12.9357 15.5231 13.4128 15.3376C13.906 15.146 14.3242 14.8895 14.7412 14.4726C15.1581 14.0556 15.4146 13.6374 15.6062 13.1442C15.7917 12.6671 15.9184 12.1219 15.9549 11.3236C15.9914 10.5236 16 10.2683 16 8.23145C16 6.19458 15.9914 5.93916 15.9549 5.13923ZM14.6049 11.262C14.5716 11.9933 14.4494 12.3904 14.3467 12.6547C14.2106 13.0047 14.0481 13.2546 13.7857 13.5171C13.5232 13.7795 13.2733 13.942 12.9233 14.0781C12.659 14.1808 12.2619 14.303 11.5306 14.3363C10.7399 14.3724 10.5027 14.38 8.5 14.38C6.49726 14.38 6.26009 14.3724 5.46936 14.3363C4.73815 14.303 4.34099 14.1808 4.0767 14.0781C3.72663 13.942 3.4768 13.7795 3.21436 13.5171C2.95191 13.2546 2.78936 13.0047 2.6533 12.6547C2.5506 12.3904 2.42844 11.9933 2.39506 11.262C2.35899 10.4712 2.35134 10.234 2.35134 8.23145C2.35134 6.22887 2.35897 5.99166 2.39506 5.20081C2.42844 4.4696 2.5506 4.07244 2.6533 3.80815C2.78934 3.45808 2.95189 3.20825 3.21433 2.94581C3.47679 2.68336 3.72663 2.52081 4.0767 2.38475C4.34099 2.28205 4.73813 2.15989 5.46936 2.12651C6.26021 2.09044 6.49742 2.08279 8.5 2.08279C10.5026 2.08279 10.7398 2.09042 11.5306 2.12651C12.2619 2.15989 12.659 2.28205 12.9233 2.38475C13.2733 2.52079 13.5232 2.68334 13.7857 2.94578C14.0481 3.20824 14.2106 3.45808 14.3467 3.80815C14.4494 4.07244 14.5716 4.46958 14.6049 5.20081C14.641 5.99166 14.6486 6.22887 14.6486 8.23145C14.6486 10.234 14.641 10.4712 14.6049 11.262Z" fill="#FFBD45"/>
<path id="Vector_2" d="M15.9549 5.13923C15.9184 4.34092 15.7917 3.79574 15.6062 3.31866C15.4146 2.82548 15.1581 2.40721 14.7412 1.99027C14.3242 1.57331 13.906 1.31686 13.4128 1.12519C12.9357 0.939777 12.3905 0.813015 11.5922 0.776566C10.7923 0.740065 10.5369 0.731445 8.5 0.731445C6.46311 0.731445 6.20771 0.740065 5.40778 0.776566C4.60947 0.813015 4.06429 0.939777 3.58721 1.12519C3.09405 1.31686 2.67576 1.57329 2.25882 1.99027C1.84186 2.40721 1.58541 2.82548 1.39375 3.31866C1.20833 3.79572 1.08157 4.34092 1.04512 5.13923C1.00862 5.93916 1 6.19456 1 8.23145C1 10.2683 1.00862 10.5237 1.04512 11.3236C1.08157 12.1219 1.20833 12.6671 1.39375 13.1442C1.58541 13.6373 1.84184 14.0556 2.25882 14.4726C2.67576 14.8895 3.09405 15.146 3.58721 15.3376C4.06429 15.5231 4.60947 15.6498 5.40778 15.6863C6.20772 15.7228 6.46313 15.7314 8.5 15.7314C10.5369 15.7314 10.7923 15.7228 11.5922 15.6863C12.3905 15.6498 12.9357 15.5231 13.4128 15.3376C13.906 15.146 14.3242 14.8895 14.7412 14.4726C15.1581 14.0556 15.4146 13.6374 15.6062 13.1442C15.7917 12.6671 15.9184 12.1219 15.9549 11.3236C15.9914 10.5236 16 10.2683 16 8.23145C16 6.19458 15.9914 5.93916 15.9549 5.13923ZM14.6049 11.262C14.5716 11.9933 14.4494 12.3904 14.3467 12.6547C14.2106 13.0047 14.0481 13.2546 13.7857 13.5171C13.5232 13.7795 13.2733 13.942 12.9233 14.0781C12.659 14.1808 12.2619 14.303 11.5306 14.3363C10.7399 14.3724 10.5027 14.38 8.5 14.38C6.49726 14.38 6.26009 14.3724 5.46936 14.3363C4.73815 14.303 4.34099 14.1808 4.0767 14.0781C3.72663 13.942 3.4768 13.7795 3.21436 13.5171C2.95191 13.2546 2.78936 13.0047 2.6533 12.6547C2.5506 12.3904 2.42844 11.9933 2.39506 11.262C2.35899 10.4712 2.35134 10.234 2.35134 8.23145C2.35134 6.22887 2.35897 5.99166 2.39506 5.20081C2.42844 4.4696 2.5506 4.07244 2.6533 3.80815C2.78934 3.45808 2.95189 3.20825 3.21433 2.94581C3.47679 2.68336 3.72663 2.52081 4.0767 2.38475C4.34099 2.28205 4.73813 2.15989 5.46936 2.12651C6.26021 2.09044 6.49742 2.08279 8.5 2.08279C10.5026 2.08279 10.7398 2.09042 11.5306 2.12651C12.2619 2.15989 12.659 2.28205 12.9233 2.38475C13.2733 2.52079 13.5232 2.68334 13.7857 2.94578C14.0481 3.20824 14.2106 3.45808 14.3467 3.80815C14.4494 4.07244 14.5716 4.46958 14.6049 5.20081C14.641 5.99166 14.6486 6.22887 14.6486 8.23145C14.6486 10.234 14.641 10.4712 14.6049 11.262Z" fill="#1E1E1C" fill-opacity="0.4"/>
<path id="Vector_3" d="M8.50029 4.38037C6.37323 4.38037 4.64893 6.10468 4.64893 8.23173C4.64893 10.3587 6.37324 12.083 8.50029 12.083C10.6273 12.083 12.3516 10.3587 12.3516 8.23173C12.3516 6.10466 10.6273 4.38037 8.50029 4.38037ZM8.50029 10.7317C7.11957 10.7317 6.00027 9.61243 6.00027 8.23173C6.00027 6.85101 7.11954 5.73171 8.50029 5.73171C9.88098 5.73171 11.0003 6.85099 11.0003 8.23173C11.0003 9.61242 9.88098 10.7317 8.50029 10.7317Z" fill="#FFBD45"/>
<path id="Vector_4" d="M8.50029 4.38037C6.37323 4.38037 4.64893 6.10468 4.64893 8.23173C4.64893 10.3587 6.37324 12.083 8.50029 12.083C10.6273 12.083 12.3516 10.3587 12.3516 8.23173C12.3516 6.10466 10.6273 4.38037 8.50029 4.38037ZM8.50029 10.7317C7.11957 10.7317 6.00027 9.61243 6.00027 8.23173C6.00027 6.85101 7.11954 5.73171 8.50029 5.73171C9.88098 5.73171 11.0003 6.85099 11.0003 8.23173C11.0003 9.61242 9.88098 10.7317 8.50029 10.7317Z" fill="#1E1E1C" fill-opacity="0.4"/>
<path id="Vector_5" d="M12.5045 5.12859C13.0016 5.12859 13.4045 4.72565 13.4045 4.2286C13.4045 3.73155 13.0016 3.32861 12.5045 3.32861C12.0075 3.32861 11.6045 3.73155 11.6045 4.2286C11.6045 4.72565 12.0075 5.12859 12.5045 5.12859Z" fill="#FFBD45"/>
<path id="Vector_6" d="M12.5045 5.12859C13.0016 5.12859 13.4045 4.72565 13.4045 4.2286C13.4045 3.73155 13.0016 3.32861 12.5045 3.32861C12.0075 3.32861 11.6045 3.73155 11.6045 4.2286C11.6045 4.72565 12.0075 5.12859 12.5045 5.12859Z" fill="#1E1E1C" fill-opacity="0.4"/>
</g>
<defs>
<clipPath id="clip0_60_628">
<rect width="16" height="16" fill="white" transform="translate(0.5 0.231445)"/>
</clipPath>
</defs>
</svg>
