<svg width="25" height="24" viewBox="0 0 25 24" fill="none" xmlns="http://www.w3.org/2000/svg">
<g id="move_up">
<mask id="mask0_5_1708" style="mask-type:alpha" maskUnits="userSpaceOnUse" x="0" y="0" width="25" height="24">
<rect id="Bounding box" x="0.5" width="24" height="24" fill="#D9D9D9"/>
</mask>
<g mask="url(#mask0_5_1708)">
<path id="move_up_2" d="M8.5 20C6.55 20 4.89583 19.3208 3.5375 17.9625C2.17917 16.6042 1.5 14.95 1.5 13C1.5 11.2167 2.0875 9.6625 3.2625 8.3375C4.4375 7.0125 5.90833 6.25 7.675 6.05L6.1 4.4L7.5 3L11.5 7L7.5 11L6.1 9.575L7.575 8.1C6.39167 8.33333 5.41667 8.90833 4.65 9.825C3.88333 10.7417 3.5 11.8 3.5 13C3.5 14.3833 3.9875 15.5625 4.9625 16.5375C5.9375 17.5125 7.11667 18 8.5 18H11.5V20H8.5ZM13.5 11V4H22.5V11H13.5ZM13.5 20V13H22.5V20H13.5ZM15.5 18H20.5V15H15.5V18Z" fill="white"/>
</g>
</g>
</svg>
